<?xml version="1.0" encoding="UTF-8"?>
<svg width="48px" height="34px" viewBox="0 0 48 34" version="1.1" xmlns="http://www.w3.org/2000/svg" xmlns:xlink="http://www.w3.org/1999/xlink">
    <!-- Generator: Sketch 52.6 (67491) - http://www.bohemiancoding.com/sketch -->
    <title>Shape</title>
    <desc>Created with Sketch.</desc>
    <g id="Page-1" stroke="none" stroke-width="1" fill="none" fill-rule="evenodd">
        <g id="Artboard" transform="translate(-3433.000000, -1501.000000)" fill="#00BA7C" fill-rule="nonzero">
            <g id="retw" transform="translate(3433.000000, 1501.000000)">
                <path d="M47.517,23.541 C46.933,22.955 45.983,22.955 45.397,23.541 L40.957,27.981 L40.957,7.501 C40.957,3.365 37.591,0.001 33.457,0.001 L21.757,0.001 C20.929,0.001 20.257,0.673 20.257,1.501 C20.257,2.329 20.929,3.001 21.757,3.001 L33.457,3.001 C35.937,3.001 37.957,5.021 37.957,7.501 L37.957,27.981 L33.517,23.541 C32.931,22.955 31.981,22.955 31.397,23.541 C30.813,24.127 30.809,25.077 31.397,25.661 L38.397,32.661 C38.687,32.955 39.071,33.101 39.457,33.101 C39.843,33.101 40.223,32.957 40.517,32.661 L47.517,25.661 C48.105,25.077 48.105,24.127 47.517,23.541 Z M26.197,30.101 L14.497,30.101 C12.017,30.101 9.997,28.081 9.997,25.601 L9.997,5.121 L14.437,9.561 C14.733,9.855 15.117,10.001 15.501,10.001 C15.885,10.001 16.269,9.855 16.561,9.561 C17.147,8.975 17.147,8.025 16.561,7.441 L9.561,0.441 C8.975,-0.147 8.025,-0.147 7.441,0.441 L0.441,7.441 C-0.147,8.025 -0.147,8.975 0.441,9.561 C1.029,10.147 1.975,10.147 2.561,9.561 L7.001,5.121 L7.001,25.601 C7.001,29.737 10.367,33.101 14.501,33.101 L26.201,33.101 C27.029,33.101 27.701,32.429 27.701,31.601 C27.701,30.773 27.027,30.101 26.201,30.101 L26.197,30.101 Z" id="Shape"></path>
            </g>
        </g>
    </g>
</svg>